<?xml version="1.0" encoding="utf-8"?>
<!-- Generator: Adobe Illustrator 27.4.0, SVG Export Plug-In . SVG Version: 6.00 Build 0)  -->
<svg version="1.1" id="katman_1" xmlns="http://www.w3.org/2000/svg" xmlns:xlink="http://www.w3.org/1999/xlink" x="0px" y="0px"
	 viewBox="0 0 128 128" style="enable-background:new 0 0 128 128;" xml:space="preserve">
<style type="text/css">
	.st0{fill:#175EA0;}
	.st1{fill:#EBB630;}
</style>
<g transform="matrix(4.2333 0 0 4.2333 58.9222 152.325)">
	<path class="st0" d="M-2.5-20.1v-1.4l2.1,1.4h4.8l-4.1-2.7l0.5-0.3l4.6,3.1h1.8v-5.5H4.4v1.4l-2-1.4h-2.8l-2,1.4v-1.4l-2.8,1.9v1.8
		l-1.8-1.2l3.7-2.4H-8l-4.1,2.7l4.1,2.7H-2.5z"/>
	<path class="st1" d="M8-20.1l4.1-2.7L8-25.6h2.3l4.1,2.7l-4.1,2.7H8z"/>
</g>
<g>
	<path class="st0" d="M26.3,85.8l2.1-0.3c0.1,0.5,0.3,1,0.5,1.2c0.3,0.3,0.7,0.4,1.1,0.4c0.5,0,0.8-0.2,1.1-0.5
		c0.3-0.3,0.5-0.8,0.5-1.4c0-0.6-0.1-1-0.4-1.3c-0.3-0.3-0.7-0.5-1.1-0.5c-0.3,0-0.6,0.1-1,0.2l0.2-1.8c0.6,0,1-0.1,1.4-0.4
		c0.3-0.3,0.5-0.6,0.5-1.1c0-0.4-0.1-0.7-0.3-0.9s-0.5-0.3-0.9-0.3c-0.4,0-0.7,0.1-1,0.4c-0.3,0.3-0.4,0.6-0.5,1.1l-2-0.3
		c0.1-0.7,0.4-1.2,0.6-1.7c0.3-0.4,0.7-0.7,1.2-1s1.1-0.4,1.7-0.4c1.1,0,1.9,0.3,2.6,1c0.5,0.6,0.8,1.2,0.8,1.9c0,1-0.6,1.8-1.7,2.4
		c0.7,0.1,1.2,0.5,1.6,0.9c0.4,0.5,0.6,1.1,0.6,1.8c0,1-0.4,1.9-1.1,2.6c-0.7,0.7-1.6,1.1-2.7,1.1c-1,0-1.9-0.3-2.6-0.9
		C26.8,87.6,26.4,86.8,26.3,85.8z"/>
	<path class="st0" d="M35.8,77.4H40c1,0,1.7,0.1,2.2,0.2c0.7,0.2,1.2,0.6,1.7,1.1c0.5,0.5,0.8,1.1,1.1,1.9c0.2,0.7,0.4,1.6,0.4,2.7
		c0,0.9-0.1,1.8-0.4,2.4c-0.3,0.8-0.7,1.5-1.2,2c-0.4,0.4-0.9,0.7-1.6,0.9c-0.5,0.2-1.2,0.2-2,0.2h-4.4V77.4z M38.1,79.3v7.6h1.7
		c0.6,0,1.1,0,1.4-0.1c0.4-0.1,0.7-0.3,0.9-0.5c0.2-0.2,0.4-0.6,0.6-1.1c0.2-0.5,0.2-1.2,0.2-2.1c0-0.9-0.1-1.6-0.2-2
		c-0.2-0.5-0.4-0.8-0.7-1.1s-0.6-0.4-1.1-0.5c-0.3-0.1-1-0.1-1.9-0.1H38.1z"/>
	<path class="st0" d="M54.7,88.9l-4.1-11.5h2.5l2.9,8.5l2.8-8.5h2.5l-4.1,11.5H54.7z"/>
	<path class="st0" d="M62.2,79.4v-2h2.2v2H62.2z M62.2,88.9v-8.3h2.2v8.3H62.2z"/>
	<path class="st0" d="M71.4,86.2l2.2,0.4c-0.3,0.8-0.7,1.4-1.3,1.8C71.7,88.8,70.9,89,70,89c-1.4,0-2.5-0.5-3.2-1.4
		c-0.5-0.8-0.8-1.7-0.8-2.9c0-1.4,0.4-2.5,1.1-3.2c0.7-0.8,1.6-1.2,2.7-1.2c1.2,0,2.2,0.4,2.9,1.2c0.7,0.8,1.1,2.1,1,3.8h-5.5
		c0,0.7,0.2,1.2,0.5,1.5s0.8,0.5,1.3,0.5c0.3,0,0.6-0.1,0.9-0.3S71.3,86.6,71.4,86.2z M71.6,84c0-0.6-0.2-1.1-0.5-1.5
		c-0.3-0.3-0.7-0.5-1.1-0.5c-0.5,0-0.9,0.2-1.2,0.5c-0.3,0.3-0.5,0.8-0.5,1.4H71.6z"/>
	<path class="st0" d="M77.1,88.9l-2.6-8.3h2.1l1.6,5.4l1.4-5.4h2.1l1.4,5.4l1.6-5.4h2.2l-2.7,8.3h-2.1l-1.4-5.3l-1.4,5.3H77.1z"/>
	<path class="st0" d="M92.8,86.2l2.2,0.4c-0.3,0.8-0.7,1.4-1.3,1.8c-0.6,0.4-1.4,0.6-2.3,0.6c-1.4,0-2.5-0.5-3.2-1.4
		c-0.5-0.8-0.8-1.7-0.8-2.9c0-1.4,0.4-2.5,1.1-3.2c0.7-0.8,1.6-1.2,2.7-1.2c1.2,0,2.2,0.4,2.9,1.2c0.7,0.8,1.1,2.1,1,3.8h-5.5
		c0,0.7,0.2,1.2,0.5,1.5s0.8,0.5,1.3,0.5c0.3,0,0.6-0.1,0.9-0.3S92.7,86.6,92.8,86.2z M92.9,84c0-0.6-0.2-1.1-0.5-1.5
		c-0.3-0.3-0.7-0.5-1.1-0.5c-0.5,0-0.9,0.2-1.2,0.5c-0.3,0.3-0.5,0.8-0.5,1.4H92.9z"/>
	<path class="st0" d="M99,88.9h-2.2v-8.3h2v1.2c0.3-0.6,0.7-0.9,0.9-1.1c0.3-0.2,0.6-0.3,1-0.3c0.5,0,1,0.1,1.4,0.4l-0.7,1.9
		c-0.4-0.2-0.7-0.4-1-0.4c-0.3,0-0.6,0.1-0.8,0.3c-0.2,0.2-0.4,0.5-0.5,0.9C99.1,84,99,84.9,99,86.3V88.9z"/>
</g>
</svg>
